<svg xmlns="http://www.w3.org/2000/svg" xmlns:xlink="http://www.w3.org/1999/xlink" width="500" zoomAndPan="magnify" viewBox="0 0 375 374.999991" height="500" preserveAspectRatio="xMidYMid meet" version="1.0"><path fill="#ffffff" d="M 79.339844 310.429688 C 79.339844 329.746094 95.785156 345.550781 115.882812 345.550781 L 262.046875 345.550781 C 282.140625 345.550781 298.585938 329.746094 298.585938 310.429688 L 298.585938 99.695312 L 79.339844 99.695312 Z M 124.285156 185.394531 L 150.046875 160.632812 L 188.964844 197.859375 L 227.695312 160.632812 L 253.457031 185.394531 L 214.722656 222.621094 L 253.457031 259.851562 L 227.695312 284.613281 L 188.964844 247.382812 L 150.230469 284.613281 L 124.46875 259.851562 L 163.203125 222.621094 Z M 252.910156 47.011719 L 234.636719 29.449219 L 143.289062 29.449219 L 125.015625 47.011719 L 61.070312 47.011719 L 61.070312 82.132812 L 316.855469 82.132812 L 316.855469 47.011719 Z M 252.910156 47.011719 " fill-opacity="1" fill-rule="nonzero"/></svg>