<svg xmlns="http://www.w3.org/2000/svg" xmlns:xlink="http://www.w3.org/1999/xlink" width="500" zoomAndPan="magnify" viewBox="0 0 375 374.999991" height="500" preserveAspectRatio="xMidYMid meet" version="1.0"><path fill="#ffffff" d="M 74.207031 328.171875 L 300.8125 328.171875 C 318.667969 328.171875 333.1875 314.226562 333.1875 297.078125 L 333.1875 162.320312 L 300.8125 193.414062 L 300.8125 297.078125 L 125.324219 297.078125 C 124.902344 297.078125 124.464844 297.234375 124.042969 297.234375 C 123.511719 297.234375 122.976562 297.09375 122.425781 297.078125 L 74.207031 297.078125 L 74.207031 79.421875 L 185.035156 79.421875 L 217.40625 48.328125 L 74.207031 48.328125 C 56.351562 48.328125 41.832031 62.273438 41.832031 79.421875 L 41.832031 297.078125 C 41.832031 314.226562 56.351562 328.171875 74.207031 328.171875 Z M 74.207031 328.171875 " fill-opacity="1" fill-rule="nonzero"/><path fill="#ffffff" d="M 105.53125 272.664062 L 181.269531 272.414062 L 346.570312 114.875 C 353.058594 108.632812 356.628906 100.34375 356.628906 91.527344 C 356.628906 82.707031 353.058594 74.417969 346.570312 68.175781 L 319.351562 41.984375 C 306.378906 29.5 283.742188 29.566406 270.871094 41.9375 L 105.53125 199.507812 Z M 295.085938 65.335938 L 322.355469 91.476562 L 294.949219 117.601562 L 267.730469 91.425781 Z M 139.855469 213.28125 L 243.34375 114.644531 L 270.5625 140.835938 L 167.09375 239.4375 L 139.855469 239.519531 Z M 139.855469 213.28125 " fill-opacity="1" fill-rule="nonzero"/></svg>